<svg width="131" height="33" viewBox="0 0 131 33" fill="none" xmlns="http://www.w3.org/2000/svg">
<g clip-path="url(#clip0)">
<path d="M28.1295 17.7459C28.1295 26.1823 21.846 32.0667 12.6462 32.0667H0.5V3.42517H12.6462C21.846 3.42517 28.1295 9.3096 28.1295 17.7459ZM11.9847 24.2308C15.1716 24.2308 18.629 22.4295 18.629 17.7459C18.629 13.0924 15.2017 11.2611 11.9847 11.2611H9.82007V24.2308H11.9847Z" fill="white"/>
<path d="M32.1281 4.3859C32.1281 2.04413 34.1124 0.15271 36.5777 0.15271C39.043 0.15271 41.0273 2.04413 41.0273 4.3859C41.0273 6.72766 39.043 8.61908 36.5777 8.61908C34.1124 8.58906 32.1281 6.69764 32.1281 4.3859ZM32.3386 10.8408H40.907V32.0968H32.3386V10.8408Z" fill="white"/>
<path d="M45.537 4.3859C45.537 2.04413 47.5213 0.15271 49.9866 0.15271C52.4519 0.15271 54.4362 2.04413 54.4362 4.3859C54.4362 6.72766 52.4519 8.61908 49.9866 8.61908C47.5213 8.58906 45.537 6.69764 45.537 4.3859ZM45.7475 10.8408H54.3159V32.0968H45.7475V10.8408Z" fill="white"/>
<path d="M93.0393 3.42517V32.0667H84.1402V17.0254L76.4135 26.6927L68.7169 17.0254V32.0667H59.8178V3.42517H68.3562L76.4135 14.9538L84.5009 3.42517H93.0393Z" fill="white"/>
<path d="M97.8797 17.6858C97.8797 9.33956 104.253 2.6145 114.175 2.6145C124.066 2.6145 130.47 9.36959 130.47 17.6858C130.47 26.0622 124.066 32.8473 114.175 32.8473C104.253 32.8473 97.8797 26.0321 97.8797 17.6858ZM121 17.6858C121 14.1732 118.474 10.8107 114.205 10.8107C109.936 10.8107 107.41 14.1732 107.41 17.6858C107.41 21.1685 109.936 24.6511 114.205 24.6511C118.414 24.6511 121 21.1685 121 17.6858Z" fill="white"/>
</g>
<defs>
<clipPath id="clip0">
<rect x="0.5" y="0.15271" width="130" height="32.6946" fill="white"/>
</clipPath>
</defs>
</svg>
